<svg id="Layer_1" data-name="Layer 1" xmlns="http://www.w3.org/2000/svg" viewBox="0 0 362.9 92.82"><defs><style>.cls-1{fill:#fff;}</style></defs><title>dotmatics-logo-white</title><path class="cls-1" d="M151.35,88.07,147.56,82l-1.88,1.93v4.13h-2.14V71h2.14V81.59L150.32,76h2.5l-3.88,4.6,4.73,7.51Z"/><path class="cls-1" d="M162.67,88.07V81a4.65,4.65,0,0,0-.58-2.7,2.29,2.29,0,0,0-2-.77,3.21,3.21,0,0,0-1.54.44,3.41,3.41,0,0,0-1.23,1.08v9h-2.14V76h1.47l.68,1.56a3.73,3.73,0,0,1,3.47-1.78q4,0,4,4.83v7.49Z"/><path class="cls-1" d="M167.09,82a6.6,6.6,0,0,1,1.51-4.52,5.6,5.6,0,0,1,8-.07,8,8,0,0,1,0,9.2,5.62,5.62,0,0,1-8,0A6.86,6.86,0,0,1,167.09,82Zm2.27,0q0,4.54,3.22,4.54a2.72,2.72,0,0,0,2.36-1.22,5.7,5.7,0,0,0,.85-3.32q0-4.48-3.21-4.48a2.77,2.77,0,0,0-2.35,1.19A5.47,5.47,0,0,0,169.35,82Z"/><path class="cls-1" d="M191.47,88.28h-.56l-3.56-8.23-3.52,8.23h-.56l-4.33-12.36h2.3l2.58,7.94L187,75.92h.56l3.33,7.94,2.76-7.94h2.12Z"/><path class="cls-1" d="M197.69,84.63V71h2.14V84.27a2.07,2.07,0,0,0,.56,1.53,2,2,0,0,0,1.47.56v1.92Q197.69,88.28,197.69,84.63Z"/><path class="cls-1" d="M214.55,82.21h-8.73A4.37,4.37,0,0,0,207,85.48a3.65,3.65,0,0,0,2.65,1,4.52,4.52,0,0,0,3.08-1.07l.9,1.54a4,4,0,0,1-1.53.86,8.21,8.21,0,0,1-2.87.48,5.37,5.37,0,0,1-3.88-1.55,6.06,6.06,0,0,1-1.78-4.58,6.45,6.45,0,0,1,1.82-4.8,5.29,5.29,0,0,1,3.86-1.61,5.52,5.52,0,0,1,4.06,1.45,5,5,0,0,1,1.42,3.71A4.77,4.77,0,0,1,214.55,82.21Zm-5.21-4.66a3.37,3.37,0,0,0-2.41.92,3.33,3.33,0,0,0-1.05,2.18h6.71a3,3,0,0,0-.81-2.16A3.19,3.19,0,0,0,209.34,77.56Z"/><path class="cls-1" d="M224.67,88v-.89a4.4,4.4,0,0,1-3.26,1.13,4.67,4.67,0,0,1-3.69-1.63,6.38,6.38,0,0,1-1.42-4.34,7,7,0,0,1,1.63-4.65,4.94,4.94,0,0,1,3.89-1.93,4.13,4.13,0,0,1,2.86.88V71h2.14V88Zm0-9.27a2.55,2.55,0,0,0-2.23-1.22,3.47,3.47,0,0,0-2.8,1.29,5,5,0,0,0-1.07,3.28q0,4.37,4,4.37a3.09,3.09,0,0,0,1.22-.32,1.78,1.78,0,0,0,.89-.68Z"/><path class="cls-1" d="M229.42,91.38l1.17-1.72a6.38,6.38,0,0,0,3.46,1.25,4.48,4.48,0,0,0,2.3-.5,1.46,1.46,0,0,0,.84-1.25q0-1.47-2.13-1.47a8.5,8.5,0,0,0-1.31.18,8.44,8.44,0,0,1-1.48.18q-2.58,0-2.58-1.94a1.39,1.39,0,0,1,.6-1.08,3.76,3.76,0,0,1,1.5-.7A4.57,4.57,0,0,1,230.57,77a4.55,4.55,0,0,1,3.27-1.26,4.66,4.66,0,0,1,2.79.73l1.07-1.3,1.4,1.33-1.3,1a4.46,4.46,0,0,1,.83,2.8,4.37,4.37,0,0,1-1.14,3.07,4.5,4.5,0,0,1-3,1.42l-1.77.18a3.55,3.55,0,0,0-.85.24c-.35.14-.53.32-.53.54s.37.46,1.11.46A10.16,10.16,0,0,0,234,86a10.31,10.31,0,0,1,1.53-.17,4.17,4.17,0,0,1,2.79.85,3,3,0,0,1,1,2.37,3.15,3.15,0,0,1-1.5,2.7,6.55,6.55,0,0,1-3.79,1,8.09,8.09,0,0,1-2.48-.42A7.06,7.06,0,0,1,229.42,91.38ZM234,77.46a2.33,2.33,0,0,0-1.82.79,2.78,2.78,0,0,0-.7,1.92,3.19,3.19,0,0,0,.68,2.1,2.26,2.26,0,0,0,1.84.83,2.15,2.15,0,0,0,1.78-.81,3.3,3.3,0,0,0,.64-2.12,2.81,2.81,0,0,0-.69-1.92A2.21,2.21,0,0,0,234,77.46Z"/><path class="cls-1" d="M251.69,82.21H243a4.36,4.36,0,0,0,1.17,3.26,3.64,3.64,0,0,0,2.65,1,4.52,4.52,0,0,0,3.08-1.07l.91,1.54a4.05,4.05,0,0,1-1.53.86,8.19,8.19,0,0,1-2.87.48,5.37,5.37,0,0,1-3.88-1.55,6.06,6.06,0,0,1-1.78-4.58,6.45,6.45,0,0,1,1.82-4.8,5.29,5.29,0,0,1,3.86-1.61,5.52,5.52,0,0,1,4.06,1.45,5,5,0,0,1,1.42,3.71A4.77,4.77,0,0,1,251.69,82.21Zm-5.21-4.66a3.39,3.39,0,0,0-3.46,3.1h6.71a3,3,0,0,0-.81-2.16A3.19,3.19,0,0,0,246.48,77.56Z"/><path class="cls-1" d="M260.3,87.33l.76-2a5.82,5.82,0,0,0,2.89,1.18q2,0,2-1.67,0-1.19-1.92-2.05a16,16,0,0,1-2-1,4.44,4.44,0,0,1-.89-.8,3.14,3.14,0,0,1-.57-.95,3.07,3.07,0,0,1-.19-1.08,2.77,2.77,0,0,1,1.09-2.32,4.54,4.54,0,0,1,2.84-.84,9.13,9.13,0,0,1,3.34.84l-.61,2a4.12,4.12,0,0,0-2.57-1,2.24,2.24,0,0,0-1.3.36,1.08,1.08,0,0,0-.53.91A1.9,1.9,0,0,0,264,80.59l1.54.7a5.4,5.4,0,0,1,2.06,1.47,3.25,3.25,0,0,1,.64,2.06,3.09,3.09,0,0,1-1.14,2.55,4.91,4.91,0,0,1-3.16.92A7.19,7.19,0,0,1,260.3,87.33Z"/><path class="cls-1" d="M269.67,82a6.6,6.6,0,0,1,1.51-4.52,5.6,5.6,0,0,1,8-.07,8,8,0,0,1,0,9.2,5.62,5.62,0,0,1-8,0A6.86,6.86,0,0,1,269.67,82Zm2.27,0q0,4.54,3.22,4.54a2.72,2.72,0,0,0,2.36-1.22,5.7,5.7,0,0,0,.85-3.32q0-4.48-3.21-4.48a2.77,2.77,0,0,0-2.35,1.19A5.47,5.47,0,0,0,271.93,82Z"/><path class="cls-1" d="M283,84.63V71h2.14V84.27a2.06,2.06,0,0,0,.56,1.53,2,2,0,0,0,1.47.56v1.92Q283,88.28,283,84.63Z"/><path class="cls-1" d="M291.72,76v7.71q0,2.8,2.43,2.8a3.35,3.35,0,0,0,1.95-.61,2.93,2.93,0,0,0,1.17-1.41V76h2.14V88.07h-2.14V86.39a3.32,3.32,0,0,1-1.45,1.3,4.48,4.48,0,0,1-2.13.59,4,4,0,0,1-3-1.14,4.6,4.6,0,0,1-1.06-3.24V76Z"/><path class="cls-1" d="M303.12,77.66h-1.4V76h1.4V73.43l2.14-.82V76h3.32v1.7h-3.32v6a3.52,3.52,0,0,0,.51,2.16,2,2,0,0,0,1.65.64,4,4,0,0,0,1.7-.42l.32,1.89a11.79,11.79,0,0,1-2.92.34,3.16,3.16,0,0,1-2.42-1.07,3.81,3.81,0,0,1-1-2.69Z"/><path class="cls-1" d="M312.57,88.07V77.77H310.9V76h3.81V88.07Zm1.16-16.69a1.31,1.31,0,1,1-.94.39A1.29,1.29,0,0,1,313.73,71.38Z"/><path class="cls-1" d="M317.34,82a6.6,6.6,0,0,1,1.51-4.52,5.6,5.6,0,0,1,8-.07,8,8,0,0,1,0,9.2,5.62,5.62,0,0,1-8,0A6.86,6.86,0,0,1,317.34,82Zm2.27,0q0,4.54,3.22,4.54a2.72,2.72,0,0,0,2.36-1.22A5.7,5.7,0,0,0,326,82q0-4.48-3.21-4.48a2.77,2.77,0,0,0-2.35,1.19A5.47,5.47,0,0,0,319.61,82Z"/><path class="cls-1" d="M338,88.07V81a4.65,4.65,0,0,0-.58-2.7,2.29,2.29,0,0,0-2-.77,3.21,3.21,0,0,0-1.54.44,3.41,3.41,0,0,0-1.23,1.08v9h-2.14V76H332l.68,1.56a3.73,3.73,0,0,1,3.47-1.78q4,0,4,4.83v7.49Z"/><path class="cls-1" d="M342.41,87.33l.76-2a5.82,5.82,0,0,0,2.89,1.18q2,0,2-1.67,0-1.19-1.92-2.05a16,16,0,0,1-2-1,4.45,4.45,0,0,1-.89-.8,3.14,3.14,0,0,1-.57-.95,3.07,3.07,0,0,1-.19-1.08,2.77,2.77,0,0,1,1.09-2.32,4.54,4.54,0,0,1,2.84-.84,9.13,9.13,0,0,1,3.34.84l-.61,2a4.13,4.13,0,0,0-2.57-1,2.24,2.24,0,0,0-1.3.36,1.08,1.08,0,0,0-.53.91,1.9,1.9,0,0,0,1.32,1.76l1.54.7a5.4,5.4,0,0,1,2.06,1.47,3.25,3.25,0,0,1,.64,2.06,3.09,3.09,0,0,1-1.14,2.55,4.91,4.91,0,0,1-3.16.92A7.19,7.19,0,0,1,342.41,87.33Z"/><path class="cls-1" d="M30,61.33V58.12q-4,4.08-11.7,4.08A16.69,16.69,0,0,1,5.08,56.34Q0,50.48,0,40.72A25.11,25.11,0,0,1,5.85,24Q11.7,17,19.78,17,26.52,17,30,20.21V0h7.76V61.33ZM30,28a9.14,9.14,0,0,0-8-4.39A12.42,12.42,0,0,0,12,28.2,17.89,17.89,0,0,0,8.12,40q0,15.75,14.3,15.75a11,11,0,0,0,4.39-1.16A6.39,6.39,0,0,0,30,52.13Z"/><path class="cls-1" d="M46,39.52q0-10.08,5.42-16.28A18.05,18.05,0,0,1,65.65,17q9.34,0,14.5,6t5.16,16.52Q85.32,50,80,56.12T65.65,62.2q-9.3,0-14.5-6.14T46,39.52Zm8.12,0q0,16.38,11.58,16.38a9.78,9.78,0,0,0,8.47-4.39q3.07-4.39,3.07-12,0-16.17-11.54-16.17a9.93,9.93,0,0,0-8.43,4.31Q54.07,32,54.07,39.52Z"/><path class="cls-1" d="M96.29,23.92H91.21V17.83h5.07V8.7l7.76-3V17.83h12v6.09H104V45.55q0,5.49,1.85,7.81t6,2.32A14.15,14.15,0,0,0,118,54.15L119.12,61a42.61,42.61,0,0,1-10.54,1.23,11.45,11.45,0,0,1-8.73-3.84,13.72,13.72,0,0,1-3.56-9.7Z"/><path class="cls-1" d="M177,61.4V33.84q0-10.28-8.9-10.28a8.9,8.9,0,0,0-5.24,1.73,9.1,9.1,0,0,0-3.33,3.92V61.4h-7.76V30.47a6,6,0,0,0-2.42-5.06,10.26,10.26,0,0,0-6.4-1.85A8.88,8.88,0,0,0,138,25.35a10.91,10.91,0,0,0-3.72,3.94V61.4h-7.76V17.83h5l2.56,5.07Q138.63,17,145.35,17q9.36,0,13.11,5.8a10,10,0,0,1,4.84-4.14A17,17,0,0,1,170.59,17q6.76,0,10.46,4t3.71,11.24V61.4Z"/><path class="cls-1" d="M220.24,56.4q-4.63,5.8-14.19,5.8a12.2,12.2,0,0,1-8.88-3.72,12.51,12.51,0,0,1-3.76-9.26q0-6.63,5.79-11.21T214,33.42a16.88,16.88,0,0,1,5.53,1.09q0-10.58-9.44-10.58-7.24,0-11.15,3.91l-3.26-6.45a19.14,19.14,0,0,1,6.09-3.07A23.74,23.74,0,0,1,209.18,17q9.49,0,13.79,4.32t4.3,13.72V50.7q0,5.74,3.41,7.65V62.2q-4.73,0-7.07-1.35A7.59,7.59,0,0,1,220.24,56.4ZM219.51,40a26.16,26.16,0,0,0-5.11-.87,14.58,14.58,0,0,0-9.54,3,9,9,0,0,0-3.69,7.14q0,6.81,8,6.81,5.84,0,10.35-5.58Z"/><path class="cls-1" d="M242.16,23.92h-5.07V17.83h5.07V8.7l7.76-3V17.83h12v6.09h-12V45.55q0,5.49,1.85,7.81t6,2.32a14.15,14.15,0,0,0,6.14-1.52L265,61a42.61,42.61,0,0,1-10.54,1.23,11.45,11.45,0,0,1-8.73-3.84,13.72,13.72,0,0,1-3.56-9.7Z"/><path class="cls-1" d="M276.11,61.4v-37h-5.94V17.83h13.7V61.4Zm4.26-60a4.64,4.64,0,0,1,3.4,1.4,4.59,4.59,0,0,1,1.4,3.36,4.63,4.63,0,0,1-1.4,3.4,4.63,4.63,0,0,1-3.4,1.4A4.58,4.58,0,0,1,277,9.54a4.63,4.63,0,0,1-1.4-3.4A4.6,4.6,0,0,1,277,2.76,4.6,4.6,0,0,1,280.37,1.38Z"/><path class="cls-1" d="M329.21,21.39l-3.86,5.44a11.63,11.63,0,0,0-4.21-2.21,18,18,0,0,0-5.93-1,12.56,12.56,0,0,0-10.1,4.4q-3.74,4.41-3.74,12.08t3.78,11.63q3.79,4,10.5,4,5.21,0,10.5-4.06l3.05,6.52Q323,62.2,313.79,62.2a19.67,19.67,0,0,1-14.72-6q-5.82-6-5.82-16.18,0-10.41,6.08-16.71T316,17a22,22,0,0,1,7.37,1.42A21,21,0,0,1,329.21,21.39Z"/><path class="cls-1" d="M334.48,58.78l2.73-7.31q6.47,4.21,10.41,4.2,7.16,0,7.16-6,0-4.3-6.91-7.39a56.79,56.79,0,0,1-7.18-3.7,16,16,0,0,1-3.21-2.87,11.4,11.4,0,0,1-2-3.41,11.07,11.07,0,0,1-.67-3.88,10,10,0,0,1,3.9-8.37q3.9-3,10.2-3,4.76,0,12,3l-2.2,7.15a14.89,14.89,0,0,0-9.23-3.62,8,8,0,0,0-4.66,1.3,3.87,3.87,0,0,0-1.89,3.29q0,4.18,4.76,6.33L353.18,37a19.43,19.43,0,0,1,7.4,5.28,11.72,11.72,0,0,1,2.32,7.44,11.13,11.13,0,0,1-4.11,9.17q-4.11,3.31-11.38,3.31A25.91,25.91,0,0,1,334.48,58.78Z"/><circle class="cls-1" cx="22.8" cy="80.44" r="7.63"/><circle class="cls-1" cx="65.7" cy="80.4" r="7.63"/><circle class="cls-1" cx="108.64" cy="80.4" r="7.63"/></svg>